<?xml version="1.0" encoding="UTF-8" standalone="no"?>
<!DOCTYPE svg PUBLIC "-//W3C//DTD SVG 1.1//EN" "http://www.w3.org/Graphics/SVG/1.1/DTD/svg11.dtd">
<svg width="100%" height="100%" viewBox="0 0 9449 2363" version="1.1" xmlns="http://www.w3.org/2000/svg" xmlns:xlink="http://www.w3.org/1999/xlink" xml:space="preserve" xmlns:serif="http://www.serif.com/" style="fill-rule:evenodd;clip-rule:evenodd;stroke-linecap:round;stroke-linejoin:round;stroke-miterlimit:1.5;">
    <g>
        <g transform="matrix(0.825233,0,0,0.825233,-2308.11,170.161)">
            <text x="2838px" y="2023px" style="font-family:'Roboto-Bold', 'Roboto';font-weight:700;font-size:2416.56px;fill:rgb(54,116,186);">bl   ckfund</text>
        </g>
        <g>
            <g id="Block-Front" serif:id="Block Front" transform="matrix(1.88662,0,0,1.88662,511.146,-502.763)">
                <path d="M1034.5,641L1384,807L1034.5,973L685,807L1034.5,641Z" style="fill:rgb(100,181,246);"/>
                <path d="M1034.5,973L1034.5,1347.1L685,1181.1L685,807L1034.5,973Z" style="fill:rgb(25,118,210);"/>
                <g transform="matrix(-1,0,0,1,2069,0)">
                    <path d="M1034.5,973L1034.5,1347.1L685,1181.1L685,807L1034.5,973Z" style="fill:rgb(187,222,251);"/>
                </g>
            </g>
            <g transform="matrix(1.21441,0,0,1.21441,1028.51,-493.071)">
                <g transform="matrix(1,0,0,1,-148.635,204.937)">
                    <circle cx="1329.74" cy="1294" r="413" style="fill:rgb(251,192,45);"/>
                </g>
                <g transform="matrix(1,0,0,1,-148.635,265.448)">
                    <circle cx="1329.74" cy="1294" r="413" style="fill:rgb(255,235,59);"/>
                </g>
                <g transform="matrix(0.853484,0,0,0.853484,46.1927,455.039)">
                    <circle cx="1329.74" cy="1294" r="413" style="fill:rgb(251,192,42);"/>
                </g>
                <g transform="matrix(0.80286,0,0,0.80286,113.51,520.547)">
                    <circle cx="1329.74" cy="1294" r="413" style="fill:rgb(255,245,157);"/>
                </g>
                <g transform="matrix(1,0,0,1,0,959.858)">
                    <path d="M890.462,759.224C1125.93,750.574 1333.61,675.808 1483.18,462.769C1593.74,625.029 1531.23,786.656 1353.13,947.859C1077.11,970.448 944.808,892.189 890.462,759.224Z" style="fill:rgb(251,192,42);fill-opacity:0.195408;"/>
                </g>
                <g transform="matrix(1,0,0,1,-2.27374e-13,106.858)">
                    <path d="M1181.1,1039.59C1409.04,1039.59 1594.1,1224.65 1594.1,1452.59C1594.1,1680.53 1409.04,1865.59 1181.1,1865.59C953.161,1865.59 768.102,1680.53 768.102,1452.59C768.102,1224.65 953.161,1039.59 1181.1,1039.59ZM1181.1,1100.1C1375.65,1100.1 1533.59,1258.05 1533.59,1452.59C1533.59,1647.13 1375.65,1805.08 1181.1,1805.08C986.558,1805.08 828.613,1647.13 828.613,1452.59C828.613,1258.05 986.558,1100.1 1181.1,1100.1Z" style="fill:rgb(255,235,59);"/>
                </g>
                <g id="Lightbulb" transform="matrix(1,0,0,1,-2.27374e-13,606.858)">
                    <path d="M1064.95,990.823C1030.62,959.364 1009.08,914.164 1009.08,863.973C1009.08,769.028 1086.16,691.946 1181.1,691.946C1276.05,691.946 1353.13,769.028 1353.13,863.973C1353.13,923.166 1323.17,975.417 1277.6,1006.37C1267.29,1016.31 1256.06,1030.08 1253.12,1044.88L1253.12,1109.6L1253.1,1109.6C1252.26,1148.62 1220.32,1180.03 1181.1,1180.03C1141.88,1180.03 1109.95,1148.62 1109.1,1109.6L1109.09,1109.6L1109.09,1052C1109,1033.56 1094.27,1016 1081.86,1004.47C1075.93,1000.27 1070.29,995.714 1064.95,990.823L1064.95,990.823L1064.95,990.823Z" style="fill:none;stroke:rgb(251,192,42);stroke-width:24.02px;"/>
                    <g transform="matrix(0.80669,0.590975,-0.590975,0.80669,682.177,-576.85)">
                        <ellipse cx="1261" cy="752" rx="42" ry="18" style="fill:rgb(251,192,42);"/>
                    </g>
                    <g transform="matrix(1,0,0,1,0,-8)">
                        <path d="M1109.09,1068.47C1155.1,1085.22 1202.96,1086.56 1253.12,1068.47" style="fill:none;stroke:rgb(251,192,42);stroke-width:24.02px;"/>
                    </g>
                    <g transform="matrix(1,0,0,1,0,41)">
                        <path d="M1109.09,1068.47C1155.1,1085.22 1202.96,1086.56 1253.12,1068.47" style="fill:none;stroke:rgb(251,192,42);stroke-width:24.02px;"/>
                    </g>
                </g>
            </g>
        </g>
    </g>
</svg>
